{
.appVersion = "3151";
.formatVersion = 3;
customParameters = (
{
name = vendorID;
value = GOOG;
},
{
name = panose;
value = (
2,
2,
5,
0,
0,
0,
0,
0,
0,
0
);
},
{
name = unicodeRanges;
value = (
0,
1,
7,
29,
36,
42,
43,
44,
45,
48,
49,
50,
51,
52,
54,
55,
57,
59,
61,
65,
66,
68
);
},
{
name = codePageRanges;
value = (
"1252",
"1250",
"1251",
"1258",
"932",
"936",
"bit 29",
"bit 30"
);
},
{
name = fsType;
value = (
);
},
{
name = ROS;
value = "Adobe-Identity-0";
}
);
date = "2017-05-01 11:14:28 +0000";
familyName = "Yaku Han MP";
featurePrefixes = (
{
automatic = 1;
code = "languagesystem DFLT dflt;
";
name = Languagesystems;
}
);
features = (
{
automatic = 1;
code = "feature vert;
feature vrt2;
";
tag = aalt;
},
{
code = "sub comma-han by comma-han.vert;
sub period-han by period-han.vert;
sub colon.full by colon.full.vert;
sub blacklenticularbracketleft by blacklenticularbracketleft.vert;
sub blacklenticularbracketright by blacklenticularbracketright.vert;
sub cornerbracketleft by cornerbracketleft.vert;
sub cornerbracketright by cornerbracketright.vert;
sub dblanglebracketleft by dblanglebracketleft.vert;
sub dblanglebracketright by dblanglebracketright.vert;
sub tortoiseshellbracketleft by tortoiseshellbracketleft.vert;
sub tortoiseshellbracketright by tortoiseshellbracketright.vert;
sub whitecornerbracketleft by whitecornerbracketleft.vert;
sub whitecornerbracketright by whitecornerbracketright.vert;
sub whitelenticularbracketleft by whitelenticularbracketleft.vert;
sub whitelenticularbracketright by whitelenticularbracketright.vert;
sub braceleft.full by braceleft.full.vert;
sub braceright.full by braceright.full.vert;
sub bracketleft.full by bracketleft.full.vert;
sub bracketright.full by bracketright.full.vert;
sub parenleft.full by parenleft.full.vert;
sub parenright.full by parenright.full.vert;
sub angleLeft by anglebracketleft.vert;
sub angleRight by anglebracketright.vert;";
tag = vert;
},
{
automatic = 1;
code = "sub comma-han by comma-han.vert;

glyphs = (
{
glyphname = .notdef;
layers = (
{
hints = (
{
horizontal = 1;
place = (-120, 50);
place = (-120, 50);
type = Stem;
},
{
horizontal = 1;
place = (830, 50);
place = (830, 50);
type = Stem;
},
{
place = (100, 50);
place = (100, 50);
type = Stem;
},
{
place = (850, 50);
place = (850, 50);
type = Stem;
},
{
horizontal = 1;
place = (789, 91);
place = (789, 91);
type = Stem;
}
);
layerId = m01;
shapes = (
{
closed = 1;
nodes = (
(100,-120,l),
(900,-120,l),
(900,880,l),
(100,880,l)
);
},
{
closed = 1;
nodes = (
(500,421,l),
(182,830,l),
(818,830,l)
);
},
{
closed = 1;
nodes = (
(532,380,l),
(850,789,l),
(850,-29,l)
);
},
{
closed = 1;
nodes = (
(182,-70,l),
(500,339,l),
(818,-70,l)
);
},
{
closed = 1;
nodes = (
(150,789,l),
(468,380,l),
(150,-29,l)
);
}
);
vertWidth = 1000;
width = 1000;
}
);
note = ".notdef";
},
{
glyphname = "comma-han";
kernLeft = "comma-han";
lastChange = "2023-08-28 01:09:19 +0000";
layers = (
{
hints = (
{
horizontal = 1;
place = (-78, 252);
place = (-78, 252);
type = Stem;
},
{
place = (37, 258);
place = (37, 258);
type = Stem;
}
);
layerId = m01;
shapes = (
{
closed = 1;
nodes = (
(37,159,l),
(126,94,o),
(164,29,o),
(194,-34,cs),
(209,-65,o),
(224,-78,o),
(247,-78,cs),
(276,-78,o),
(295,-58,o),
(295,-26,cs),
(295,-4,o),
(289,16,o),
(272,41,cs),
(238,91,o),
(172,141,o),
(48,174,c)
);
}
);
vertWidth = 1000;
width = 495;
}
);
note = cid01397;
unicode = 12289;
},
{
glyphname = "comma-han.vert";
kernBottom = comma.full.vert;
lastChange = "2023-08-28 01:10:03 +0000";
layers = (
{
hints = (
{
horizontal = 1;
place = (589, 251);
place = (589, 251);
type = Stem;
},
{
place = (687, 257);
place = (687, 257);
type = Stem;
}
);
layerId = m01;
shapes = (
{
closed = 1;
nodes = (
(687,824,l),
(775,759,o),
(812,695,o),
(842,633,cs),
(856,602,o),
(871,589,o),
(895,589,cs),
(924,589,o),
(944,609,o),
(944,642,cs),
(944,662,o),
(938,682,o),
(921,708,cs),
(886,757,o),
(821,807,o),
(698,840,c)
);
}
);
vertWidth = 491;
width = 1000;
}
);
note = cid59877;
unicode = 65041;
},
{
glyphname = "period-han";
kernLeft = "comma-han";
lastChange = "2023-08-28 01:09:23 +0000";
layers = (
{
hints = (
{
horizontal = 1;
place = (-82, 34);
place = (-82, 34);
type = Stem;
},
{
horizontal = 1;
place = (165, 34);
place = (165, 34);
type = Stem;
},
{
place = (42, 34);
place = (42, 34);
type = Stem;
},
{
place = (289, 34);
place = (289, 34);
type = Stem;
}
);
layerId = m01;
shapes = (
{
closed = 1;
nodes = (
(261,-82,o),
(323,-19,o),
(323,59,cs),
(323,137,o),
(261,199,o),
(183,199,cs),
(105,199,o),
(42,137,o),
(42,59,cs),
(42,-19,o),
(105,-82,o),
(183,-82,cs)
);
},
{
closed = 1;
nodes = (
(241,165,o),
(289,117,o),
(289,59,cs),
(289,1,o),
(241,-48,o),
(183,-48,cs),
(124,-48,o),
(76,1,o),
(76,59,cs),
(76,117,o),
(124,165,o),
(183,165,cs)
);
}
);
vertWidth = 1000;
width = 723;
}
);
note = cid01398;
unicode = 12290;
},
{
glyphname = "period-han.vert";
kernBottom = comma.full.vert;
lastChange = "2023-08-28 01:10:09 +0000";
layers = (
{
hints = (
{
horizontal = 1;
place = (543, 33);
place = (543, 33);
type = Stem;
},
{
horizontal = 1;
place = (787, 34);
place = (787, 34);
type = Stem;
},
{
place = (682, 34);
place = (682, 34);
type = Stem;
},
{
place = (927, 33);
place = (927, 33);
type = Stem;
}
);
layerId = m01;
shapes = (
{
closed = 1;
nodes = (
(899,543,o),
(960,605,o),
(960,682,cs),
(960,759,o),
(899,821,o),
(822,821,cs),
(745,821,o),
(682,759,o),
(682,682,cs),
(682,605,o),
(745,543,o),
(822,543,cs)
);
},
{
closed = 1;
nodes = (
(879,787,o),
(927,740,o),
(927,682,cs),
(927,625,o),
(879,576,o),
(822,576,cs),
(763,576,o),
(716,625,o),
(716,682,cs),
(716,740,o),
(763,787,o),
(822,787,cs)
);
}
);
vertWidth = 737;
width = 1000;
}
);
note = cid59878;
unicode = 65042;
},
{
glyphname = "dot-kata";
lastChange = "2023-08-28 01:09:30 +0000";
layers = (
{
hints = (
{
horizontal = 1;
place = (282, 196);
place = (282, 196);
type = Stem;
},
{
place = (402, 196);
place = (402, 196);
type = Stem;
}
);
layerId = m01;
shapes = (
{
closed = 1;
nodes = (
(346,434,o),
(302,478,o),
(248,478,cs),
(194,478,o),
(150,434,o),
(150,380,cs),
(150,326,o),
(194,282,o),
(248,282,cs),
(302,282,o),
(346,326,o),
(346,380,cs)
);
}
);
vertWidth = 1000;
width = 496;
}
);
note = cid01644;
unicode = 12539;
},
{
glyphname = hyphenationpoint;
lastChange = "2023-08-28 01:09:30 +0000";
layers = (
{
hints = (
{
horizontal = 1;
place = (316, 128);
place = (316, 128);
type = Stem;
},
{
place = (436, 128);
place = (436, 128);
type = Stem;
}
);
layerId = m01;
shapes = (
{
closed = 1;
nodes = (
(150,344,o),
(178,316,o),
(214,316,cs),
(250,316,o),
(278,344,o),
(278,380,cs),
(278,416,o),
(250,444,o),
(214,444,cs),
(178,444,o),
(150,416,o),
(150,380,cs)
);
}
);
vertWidth = 1000;
width = 428;
}
);
note = cid00729;
unicode = 8231;
},
{
glyphname = colon.full;
lastChange = "2023-08-28 01:09:30 +0000";
layers = (
{
hints = (
{
horizontal = 1;
place = (35, 144);
place = (35, 144);
type = Stem;
},
{
horizontal = 1;
place = (515, 144);
place = (515, 144);
type = Stem;
},
{
place = (428, 144);
place = (428, 144);
type = Stem;
}
);
layerId = m01;
shapes = (
{
closed = 1;
nodes = (
(150,67,o),
(181,35,o),
(222,35,cs),
(262,35,o),
(294,67,o),
(294,107,cs),
(294,146,o),
(262,179,o),
(222,179,cs),
(181,179,o),
(150,146,o),
(150,107,cs)
);
},
{
closed = 1;
nodes = (
(150,547,o),
(181,515,o),
(222,515,cs),
(262,515,o),
(294,547,o),
(294,587,cs),
(294,626,o),
(262,659,o),
(222,659,cs),
(181,659,o),
(150,626,o),
(150,587,cs)
);
}
);
vertWidth = 1000;
width = 444;
}
);
note = cid59969;
unicode = 65306;
},
{
glyphname = exclam.full;
lastChange = "2023-08-28 01:09:30 +0000";
layers = (
{
hints = (
{
horizontal = 1;
place = (-12, 133);
place = (-12, 133);
type = Stem;
},
{
place = (432, 136);
place = (432, 136);
type = Stem;
},
{
place = (474, 52);
place = (474, 52);
type = Stem;
}
);
layerId = m01;
shapes = (
{
closed = 1;
nodes = (
(257,-12,o),
(286,18,o),
(286,55,cs),
(286,91,o),
(257,121,o),
(218,121,cs),
(178,121,o),
(150,91,o),
(150,55,cs),
(150,18,o),
(178,-12,o),
(218,-12,cs)
);
},
{
closed = 1;
nodes = (
(180,767,o),
(156,744,o),
(156,693,cs),
(156,639,o),
(165,552,o),
(185,371,cs),
(199,217,l),
(237,217,l),
(251,371,ls),
(271,551,o),
(280,639,o),
(280,693,cs),
(280,744,o),
(256,767,o),
(218,767,cs)
);
}
);
vertWidth = 1000;
width = 436;
}
);
note = cid59944;
unicode = 65281;
},
{
glyphname = question.full;
lastChange = "2023-08-28 01:09:30 +0000";
layers = (
{
hints = (
{
horizontal = 1;
place = (-12, 131);
place = (-12, 131);
type = Stem;
},
{
horizontal = 1;
place = (725, 42);
place = (725, 42);
type = Stem;
},
{
place = (390, 133);
place = (390, 133);
type = Stem;
},
{
place = (622, 95);
place = (622, 95);
type = Stem;
},
{
place = (428, 48.5);
place = (428, 48.5);
type = Stem;
}
);
layerId = m01;
shapes = (
{
closed = 1;
nodes = (
(320,119,o),
(292,89,o),
(292,53,cs),
(292,17,o),
(320,-12,o),
(358,-12,cs),
(397,-12,o),
(425,17,o),
(425,53,cs),
(425,89,o),
(397,119,o),
(358,119,cs)
);
},
{
closed = 1;
nodes = (
(289,711,l),
(318,722,o),
(338,725,o),
(369,725,cs),
(456,725,o),
(524,690,o),
(524,597,cs),
(524,532,o),
(488,486,o),
(419,434,cs),
(349,381,o),
(330,354,o),
(330,311,cs),
(330,284,o),
(333,245,o),
(338,209,c),
(376,209,l),
(381,280,ls),
(384,330,o),
(407,350,o),
(475,392,cs),
(576,455,o),
(619,514,o),
(619,592,cs),
(619,695,o),
(541,767,o),
(390,767,cs),
(261,767,o),
(163,697,o),
(150,586,c),
(161,564,o),
(179,557,o),
(198,557,cs),
(232,557,o),
(251,579,o),
(265,631,cs)
);
}
);
vertWidth = 1000;
width = 769;
}
);
note = cid59974;
unicode = 65311;
},
{
glyphname = semicolon.full;
lastChange = "2023-08-28 01:09:30 +0000";
layers = (
{
hints = (
{
horizontal = 1;
place = (515, 144);
place = (515, 144);
type = Stem;
},
{
place = (517, 55);
place = (517, 55);
type = Stem;
},
{
place = (427, 144);
place = (427, 144);
type = Stem;
}
);
layerId = m01;
shapes = (
{
closed = 1;
nodes = (
(166,-96,l),
(272,-49,o),
(308,50,o),
(308,129,cs),
(308,184,o),
(277,222,o),
(231,222,cs),
(187,222,o),
(162,191,o),
(162,157,cs),
(162,102,o),
(214,84,o),
(253,70,c),
(250,29,o),
(226,-31,o),
(150,-69,c)
);
},
{
closed = 1;
nodes = (
(163,547,o),
(195,515,o),
(236,515,cs),
(276,515,o),
(307,547,o),
(307,587,cs),
(307,626,o),
(276,659,o),
(236,659,cs),
(195,659,o),
(163,626,o),
(163,587,cs)
);
}
);
vertWidth = 1000;
width = 458;
}
);
note = cid59970;
unicode = 65307;
},
{
glyphname = colon.full.vert;
lastChange = "2023-08-28 01:10:18 +0000";
layers = (
{
hints = (
{
horizontal = 1;
place = (308, 144);
place = (308, 144);
type = Stem;
},
{
place = (189, 143);
place = (189, 143);
type = Stem;
},
{
place = (669, 144);
place = (669, 144);
type = Stem;
}
);
layerId = m01;
shapes = (
{
closed = 1;
nodes = (
(669,618,o),
(701,586,o),
(742,586,cs),
(781,586,o),
(813,618,o),
(813,659,cs),
(813,699,o),
(781,730,o),
(742,730,cs),
(701,730,o),
(669,699,o),
(669,659,cs)
);
},
{
closed = 1;
nodes = (
(189,618,o),
(221,586,o),
(261,586,cs),
(301,586,o),
(332,618,o),
(332,659,cs),
(332,699,o),
(301,730,o),
(261,730,cs),
(221,730,o),
(189,699,o),
(189,659,cs)
);
}
);
vertWidth = 444;
width = 1000;
}
);
note = cid64716;
},
{
glyphname = angleLeft;
lastChange = "2023-08-28 01:09:43 +0000";
layers = (
{
hints = (
{
horizontal = 1;
place = (-90, 940);
place = (-90, 940);
type = Stem;
},
{
place = (532, 433);
place = (532, 433);
type = Stem;
}
);
layerId = m01;
shapes = (
{
closed = 1;
nodes = (
(633,824,l),
(603,850,l),
(200,380,l),
(603,-90,l),
(633,-64,l),
(253,380,l)
);
}
);
vertWidth = 1000;
width = 668;
}
);
note = cid01404;
unicode = (9001,12296);
},
{
glyphname = angleRight;
lastChange = "2023-08-28 01:09:54 +0000";
layers = (
{
hints = (
{
horizontal = 1;
place = (-90, 940);
place = (-90, 940);
type = Stem;
},
{
place = (35, 433);
place = (35, 433);
type = Stem;
}
);
layerId = m01;
shapes = (
{
closed = 1;
nodes = (
(35,-64,l),
(65,-90,l),
(468,380,l),
(65,850,l),
(35,824,l),
(415,380,l)
);
}
);
vertWidth = 1000;
width = 668;
}
);
note = cid01405;
unicode = (9002,12297);
},
{
glyphname = blacklenticularbracketleft;
lastChange = "2023-08-28 01:09:43 +0000";
layers = (
{
hints = (
{
horizontal = 1;
place = (-85, 17);
place = (-85, 17);
type = Stem;
},
{
horizontal = 1;
place = (828, 17);
place = (828, 17);
type = Stem;
},
{
place = (622, 80);
place = (622, 80);
type = Stem;
}
);
layerId = m01;
shapes = (
{
closed = 1;
nodes = (
(543,-68,l),
(385,4,o),
(280,158,o),
(280,380,cs),
(280,602,o),
(385,756,o),
(543,828,c),
(543,845,l),
(200,845,l),
(200,-85,l),
(543,-85,l)
);
}
);
vertWidth = 1000;
width = 578;
}
);
note = cid01412;
unicode = 12304;
},
{
glyphname = blacklenticularbracketright;
lastChange = "2023-08-28 01:09:54 +0000";
layers = (
{
hints = (
{
horizontal = 1;
place = (-85, 17);
place = (-85, 17);
type = Stem;
},
{
horizontal = 1;
place = (828, 17);
place = (828, 17);
type = Stem;
},
{
place = (298, 80);
place = (298, 80);
type = Stem;
}
);
layerId = m01;
shapes = (
{
closed = 1;
nodes = (
(35,-85,l),
(378,-85,l),
(378,845,l),
(35,845,l),
(35,828,l),
(193,756,o),
(298,602,o),
(298,380,cs),
(298,158,o),
(193,4,o),
(35,-68,c)
);
}
);
vertWidth = 1000;
width = 578;
}
);
note = cid01413;
unicode = 12305;
},
{
glyphname = braceleft.full;
lastChange = "2023-08-28 01:09:43 +0000";
layers = (
{
hints = (
{
horizontal = 1;
place = (-110, 46);
place = (-110, 46);
type = Stem;
},
{
horizontal = 1;
place = (824, 46);
place = (824, 46);
type = Stem;
},
{
place = (706, 82);
place = (706, 82);
type = Stem;
},
{
place = (733, 55);
place = (733, 55);
type = Stem;
}
);
layerId = m01;
shapes = (
{
closed = 1;
nodes = (
(592,825,l),
(592,870,l),
(542,870,ls),
(400,870,o),
(326,820,o),
(326,727,cs),
(326,642,o),
(353,562,o),
(353,502,cs),
(353,450,o),
(319,419,o),
(200,401,c),
(200,359,l),
(319,340,o),
(353,310,o),
(353,259,cs),
(353,198,o),
(326,118,o),
(326,32,cs),
(326,-61,o),
(400,-110,o),
(542,-110,cs),
(592,-110,l),
(592,-66,l),
(542,-62,ls),
(442,-56,o),
(408,-25,o),
(408,42,cs),
(408,116,o),
(416,181,o),
(416,244,cs),
(416,305,o),
(381,359,o),
(293,380,c),
(381,401,o),
(416,454,o),
(416,516,cs),
(416,577,o),
(408,643,o),
(408,718,cs),
(408,784,o),
(442,818,o),
(542,823,cs)
);
}
);
vertWidth = 1000;
width = 620;
}
);
note = cid60034;
unicode = 65371;
},
{
glyphname = braceright.full;
lastChange = "2023-08-28 01:09:54 +0000";
layers = (
{
hints = (
{
horizontal = 1;
place = (-110, 46);
place = (-110, 46);
type = Stem;
},
{
horizontal = 1;
place = (824, 46);
place = (824, 46);
type = Stem;
},
{
place = (212, 82);
place = (212, 82);
type = Stem;
},
{
place = (212, 55);
place = (212, 55);
type = Stem;
}
);
layerId = m01;
shapes = (
{
closed = 1;
nodes = (
(420,401,l),
(301,420,o),
(267,450,o),
(267,501,cs),
(267,562,o),
(294,642,o),
(294,728,cs),
(294,821,o),
(220,870,o),
(78,870,cs),
(28,870,l),
(28,826,l),
(78,822,ls),
(178,816,o),
(212,785,o),
(212,718,cs),
(212,644,o),
(204,579,o),
(204,516,cs),
(204,455,o),
(239,401,o),
(327,380,c),
(239,359,o),
(204,306,o),
(204,244,cs),
(204,183,o),
(212,117,o),
(212,42,cs),
(212,-24,o),
(178,-58,o),
(78,-63,cs),
(28,-65,l),
(28,-110,l),
(78,-110,ls),
(220,-110,o),
(294,-60,o),
(294,33,cs),
(294,118,o),
(267,198,o),
(267,258,cs),
(267,310,o),
(301,341,o),
(420,359,c)
);
}
);
vertWidth = 1000;
width = 620;
}
);
note = cid60036;
unicode = 65373;
},
{
glyphname = cornerbracketleft;
lastChange = "2023-08-28 01:09:43 +0000";
layers = (
{
hints = (
{
horizontal = 1;
place = (809, 36);
place = (809, 36);
type = Stem;
},
{
place = (655, 38);
place = (655, 38);
type = Stem;
}
);
layerId = m01;
shapes = (
{
closed = 1;
nodes = (
(200,198,l),
(238,198,l),
(238,809,l),
(510,809,l),
(510,845,l),
(200,845,l)
);
}
);
vertWidth = 1000;
width = 545;
}
);
note = cid01408;
unicode = 12300;
},
{
glyphname = cornerbracketright;
lastChange = "2023-08-28 01:09:54 +0000";
layers = (
{
hints = (
{
horizontal = 1;
place = (-85, 36);
place = (-85, 36);
type = Stem;
},
{
place = (307, 38);
place = (307, 38);
type = Stem;
}
);
layerId = m01;
shapes = (
{
closed = 1;
nodes = (
(345,562,l),
(307,562,l),
(307,-49,l),
(35,-49,l),
(35,-85,l),
(345,-85,l)
);
}
);
vertWidth = 1000;
width = 545;
}
);
note = cid01409;
unicode = 12301;
},
{
glyphname = dblanglebracketleft;
lastChange = "2023-08-28 01:09:43 +0000";
layers = (
{
hints = (
{
horizontal = 1;
place = (-88, 936);
place = (-88, 936);
type = Stem;
},
{
place = (524, 440);
place = (524, 440);
type = Stem;
}
);
layerId = m01;
shapes = (
{
closed = 1;
nodes = (
(240,380,l),
(498,830,l),
(469,848,l),
(200,380,l),
(469,-88,l),
(498,-70,l)
);
},
{
closed = 1;
nodes = (
(383,380,l),
(640,830,l),
(611,848,l),
(343,380,l),
(611,-88,l),
(640,-70,l)
);
}
);
vertWidth = 1000;
width = 676;
}
);
note = cid01406;
unicode = 12298;
},
{
glyphname = dblanglebracketright;
lastChange = "2023-08-28 01:09:54 +0000";
layers = (
{
hints = (
{
horizontal = 1;
place = (-88, 936);
place = (-88, 936);
type = Stem;
},
{
place = (36, 440);
place = (36, 440);
type = Stem;
}
);
layerId = m01;
shapes = (
{
closed = 1;
nodes = (
(207,-88,l),
(476,380,l),
(207,848,l),
(178,830,l),
(436,380,l),
(178,-70,l)
);
},
{
closed = 1;
nodes = (
(65,-88,l),
(333,380,l),
(65,848,l),
(36,830,l),
(293,380,l),
(36,-70,l)
);
}
);
vertWidth = 1000;
width = 676;
}
);
note = cid01407;
unicode = 12299;
},
{
glyphname = tortoiseshellbracketleft;
lastChange = "2023-08-28 01:09:43 +0000";
layers = (
{
hints = (
{
horizontal = 1;
place = (-89, 938);
place = (-89, 938);
type = Stem;
},
{
place = (715, 39);
place = (715, 39);
type = Stem;
}
);
layerId = m01;
shapes = (
{
closed = 1;
nodes = (
(433,-89,l),
(450,-56,l),
(239,42,l),
(239,718,l),
(450,816,l),
(433,849,l),
(200,740,l),
(200,20,l)
);
}
);
vertWidth = 1000;
width = 485;
}
);
note = cid01416;
unicode = 12308;
},
{
glyphname = tortoiseshellbracketright;
lastChange = "2023-08-28 01:09:54 +0000";
layers = (
{
hints = (
{
horizontal = 1;
place = (-89, 938);
place = (-89, 938);
type = Stem;
},
{
place = (246, 39);
place = (246, 39);
type = Stem;
}
);
layerId = m01;
shapes = (
{
closed = 1;
nodes = (
(52,-89,l),
(285,20,l),
(285,740,l),
(52,849,l),
(35,816,l),
(246,717,l),
(246,43,l),
(35,-56,l)
);
}
);
vertWidth = 1000;
width = 485;
}
);
note = cid01417;
unicode = 12309;
},
{
glyphname = whitecornerbracketleft;
lastChange = "2023-08-28 01:09:43 +0000";
layers = (
{
hints = (
{
horizontal = 1;
place = (191, 28);
place = (191, 28);
type = Stem;
},
{
horizontal = 1;
place = (700, 28);
place = (700, 28);
type = Stem;
},
{
horizontal = 1;
place = (818, 28);
place = (818, 28);
type = Stem;
},
{
place = (609, 28);
place = (609, 28);
type = Stem;
},
{
place = (731, 28);
place = (731, 28);
type = Stem;
},
{
place = (937, 28);
place = (937, 28);
type = Stem;
}
);
layerId = m01;
shapes = (
{
closed = 1;
nodes = (
(556,700,l),
(556,846,l),
(200,846,l),
(200,191,l),
(350,191,l),
(350,700,l)
);
},
{
closed = 1;
nodes = (
(528,818,l),
(528,728,l),
(322,728,l),
(322,219,l),
(228,219,l),
(228,818,l)
);
}
);
vertWidth = 1000;
width = 591;
}
);
note = cid01410;
unicode = 12302;
},
{
glyphname = whitecornerbracketright;
lastChange = "2023-08-28 01:09:54 +0000";
layers = (
{
hints = (
{
horizontal = 1;
place = (-85, 28);
place = (-85, 28);
type = Stem;
},
{
horizontal = 1;
place = (33, 28);
place = (33, 28);
type = Stem;
},
{
horizontal = 1;
place = (541, 28);
place = (541, 28);
type = Stem;
},
{
place = (35, 28);
place = (35, 28);
type = Stem;
},
{
place = (241, 28);
place = (241, 28);
type = Stem;
},
{
place = (363, 28);
place = (363, 28);
type = Stem;
}
);
layerId = m01;
shapes = (
{
closed = 1;
nodes = (
(35,61,l),
(35,-85,l),
(391,-85,l),
(391,569,l),
(241,569,l),
(241,61,l)
);
},
{
closed = 1;
nodes = (
(63,-57,l),
(63,33,l),
(269,33,l),
(269,541,l),
(363,541,l),
(363,-57,l)
);
}
);
vertWidth = 1000;
width = 591;
}
);
note = cid01411;
unicode = 12303;
},
{
glyphname = whitelenticularbracketleft;
lastChange = "2023-08-28 01:09:43 +0000";
layers = (
{
hints = (
{
horizontal = 1;
place = (-85, 28);
place = (-85, 28);
type = Stem;
},
{
horizontal = 1;
place = (817, 28);
place = (817, 28);
type = Stem;
},
{
place = (615, 28);
place = (615, 28);
type = Stem;
},
{
place = (676, 28);
place = (676, 28);
type = Stem;
},
{
horizontal = 1;
place = (824, 21);
place = (824, 21);
type = Stem;
}
);
layerId = m01;
shapes = (
{
closed = 1;
nodes = (
(550,-64,l),
(398,2,o),
(289,158,o),
(289,380,cs),
(289,602,o),
(398,758,o),
(550,824,c),
(550,845,l),
(200,845,l),
(200,-85,l),
(550,-85,l)
);
},
{
closed = 1;
nodes = (
(228,-57,l),
(228,817,l),
(479,817,l),
(392,764,o),
(261,632,o),
(261,380,cs),
(261,128,o),
(392,-4,o),
(479,-57,c)
);
}
);
vertWidth = 1000;
width = 585;
}
);
note = cid01418;
unicode = 12310;
},
{
glyphname = whitelenticularbracketright;
lastChange = "2023-08-28 01:09:54 +0000";
layers = (
{
hints = (
{
horizontal = 1;
place = (-85, 28);
place = (-85, 28);
type = Stem;
},
{
horizontal = 1;
place = (817, 28);
place = (817, 28);
type = Stem;
},
{
place = (296, 28);
place = (296, 28);
type = Stem;
},
{
place = (357, 28);
place = (357, 28);
type = Stem;
},
{
horizontal = 1;
place = (824, 21);
place = (824, 21);
type = Stem;
}
);
layerId = m01;
shapes = (
{
closed = 1;
nodes = (
(385,-85,l),
(385,845,l),
(35,845,l),
(35,824,l),
(187,758,o),
(296,602,o),
(296,380,cs),
(296,158,o),
(187,2,o),
(35,-64,c),
(35,-85,l)
);
},
{
closed = 1;
nodes = (
(324,632,o),
(194,764,o),
(107,817,c),
(357,817,l),
(357,-57,l),
(107,-57,l),
(194,-4,o),
(324,128,o),
(324,380,cs)
);
}
);
vertWidth = 1000;
width = 585;
}
);
note = cid01419;
unicode = 12311;
},
{
glyphname = anglebracketleft.vert;
lastChange = "2023-08-28 01:10:25 +0000";
layers = (
{
hints = (
{
horizontal = 1;
place = (-85, 433);
place = (-85, 433);
type = Stem;
},
{
place = (30, 940);
place = (30, 940);
type = Stem;
}
);
layerId = m01;
shapes = (
{
closed = 1;
nodes = (
(944,247,l),
(970,277,l),
(500,680,l),
(30,277,l),
(56,247,l),
(500,627,l)
);
}
);
vertWidth = 668;
width = 1000;
}
);
note = cid59901;
unicode = 65087;
},
{
glyphname = anglebracketright.vert;
lastChange = "2023-08-28 01:10:31 +0000";
layers = (
{
hints = (
{
horizontal = 1;
place = (412, 433);
place = (412, 433);
type = Stem;
},
{
place = (30, 940);
place = (30, 940);
type = Stem;
}
);
layerId = m01;
shapes = (
{
closed = 1;
nodes = (
(56,845,l),
(30,815,l),
(500,412,l),
(970,815,l),
(944,845,l),
(500,465,l)
);
}
);
vertWidth = 668;
width = 1000;
}
);
note = cid59902;
unicode = 65088;
},
{
glyphname = blacklenticularbracketleft.vert;
lastChange = "2023-08-28 01:10:38 +0000";
layers = (
{
hints = (
{
horizontal = 1;
place = (178, 80);
place = (178, 80);
type = Stem;
},
{
place = (35, 17);
place = (35, 17);
type = Stem;
},
{
place = (948, 17);
place = (948, 17);
type = Stem;
}
);
layerId = m01;
shapes = (
{
closed = 1;
nodes = (
(52,337,l),
(124,495,o),
(278,600,o),
(500,600,cs),
(722,600,o),
(876,495,o),
(948,337,c),
(965,337,l),
(965,680,l),
(35,680,l),
(35,337,l)
);
}
);
vertWidth = 578;
width = 1000;
}
);
note = cid59897;
unicode = 65083;
},
{
glyphname = blacklenticularbracketright.vert;
lastChange = "2023-08-28 01:10:43 +0000";
layers = (
{
hints = (
{
horizontal = 1;
place = (502, 80);
place = (502, 80);
type = Stem;
},
{
place = (35, 17);
place = (35, 17);
type = Stem;
},
{
place = (948, 17);
place = (948, 17);
type = Stem;
}
);
layerId = m01;
shapes = (
{
closed = 1;
nodes = (
(948,845,l),
(876,687,o),
(722,582,o),
(500,582,cs),
(278,582,o),
(124,687,o),
(52,845,c),
(35,845,l),
(35,502,l),
(965,502,l),
(965,845,l)
);
}
);
vertWidth = 578;
width = 1000;
}
);
note = cid59898;
unicode = 65084;
},
{
glyphname = bracketleft.full;
lastChange = "2023-08-28 01:09:43 +0000";
layers = (
{
hints = (
{
horizontal = 1;
place = (-85, 36);
place = (-85, 36);
type = Stem;
},
{
horizontal = 1;
place = (809, 36);
place = (809, 36);
type = Stem;
},
{
place = (715, 39);
place = (715, 39);
type = Stem;
}
);
layerId = m01;
shapes = (
{
closed = 1;
nodes = (
(200,-85,l),
(450,-85,l),
(450,-49,l),
(239,-49,l),
(239,809,l),
(450,809,l),
(450,845,l),
(200,845,l)
);
}
);
vertWidth = 1000;
width = 485;
}
);
note = cid60002;
unicode = 65339;
},
{
glyphname = bracketright.full;
lastChange = "2023-08-28 01:09:54 +0000";
layers = (
{
hints = (
{
horizontal = 1;
place = (-85, 36);
place = (-85, 36);
type = Stem;
},
{
horizontal = 1;
place = (809, 36);
place = (809, 36);
type = Stem;
},
{
place = (246, 39);
place = (246, 39);
type = Stem;
}
);
layerId = m01;
shapes = (
{
closed = 1;
nodes = (
(285,-85,l),
(285,845,l),
(35,845,l),
(35,809,l),
(246,809,l),
(246,-49,l),
(35,-49,l),
(35,-85,l)
);
}
);
vertWidth = 1000;
width = 485;
}
);
note = cid60004;
unicode = 65341;
},
{
glyphname = cornerbracketleft.vert;
lastChange = "2023-08-28 01:10:49 +0000";
layers = (
{
hints = (
{
horizontal = 1;
place = (189, 36);
place = (189, 36);
type = Stem;
},
{
place = (936, 39);
place = (936, 39);
type = Stem;
}
);
layerId = m01;
shapes = (
{
closed = 1;
nodes = (
(268,680,l),
(268,644,l),
(936,644,l),
(936,370,l),
(975,370,l),
(975,680,l)
);
}
);
vertWidth = 545;
width = 1000;
}
);
note = cid59903;
unicode = 65089;
},
{
glyphname = cornerbracketright.vert;
lastChange = "2023-08-28 01:10:55 +0000";
layers = (
{
hints = (
{
horizontal = 1;
place = (527, 37);
place = (527, 37);
type = Stem;
},
{
place = (25, 39);
place = (25, 39);
type = Stem;
}
);
layerId = m01;
shapes = (
{
closed = 1;
nodes = (
(732,527,l),
(732,564,l),
(64,564,l),
(64,838,l),
(25,838,l),
(25,527,l)
);
}
);
vertWidth = 553;
width = 1000;
}
);
note = cid59904;
unicode = 65090;
},
{
glyphname = dblanglebracketleft.vert;
lastChange = "2023-08-28 01:11:01 +0000";
layers = (
{
hints = (
{
horizontal = 1;
place = (-84, 440);
place = (-84, 440);
type = Stem;
},
{
place = (32, 936);
place = (32, 936);
type = Stem;
}
);
layerId = m01;
shapes = (
{
closed = 1;
nodes = (
(500,640,l),
(950,382,l),
(968,411,l),
(500,680,l),
(32,411,l),
(50,382,l)
);
},
{
closed = 1;
nodes = (
(500,497,l),
(950,240,l),
(968,269,l),
(500,537,l),
(32,269,l),
(50,240,l)
);
}
);
vertWidth = 676;
width = 1000;
}
);
note = cid59899;
unicode = 65085;
},
{
glyphname = dblanglebracketright.vert;
lastChange = "2023-08-28 01:11:06 +0000";
layers = (
{
hints = (
{
horizontal = 1;
place = (404, 440);
place = (404, 440);
type = Stem;
},
{
place = (32, 936);
place = (32, 936);
type = Stem;
}
);
layerId = m01;
shapes = (
{
closed = 1;
nodes = (
(32,673,l),
(500,404,l),
(968,673,l),
(950,702,l),
(500,444,l),
(50,702,l)
);
},
{
closed = 1;
nodes = (
(32,815,l),
(500,547,l),
(968,815,l),
(950,844,l),
(500,587,l),
(50,844,l)
);
}
);
vertWidth = 676;
width = 1000;
}
);
note = cid59900;
unicode = 65086;
},
{
glyphname = parenleft.full;
lastChange = "2023-08-28 01:09:43 +0000";
layers = (
{
hints = (
{
horizontal = 1;
place = (-89, 938);
place = (-89, 938);
type = Stem;
},
{
place = (649, 74);
place = (649, 74);
type = Stem;
}
);
layerId = m01;
shapes = (
{
closed = 1;
nodes = (
(200,139,o),
(335,-3,o),
(473,-89,c),
(490,-70,l),
(374,25,o),
(274,168,o),
(274,380,cs),
(274,592,o),
(374,735,o),
(490,830,c),
(473,849,l),
(335,763,o),
(200,621,o),
(200,380,cs)
);
}
);
vertWidth = 1000;
width = 551;
}
);
note = cid59951;
unicode = 65288;
},
{
glyphname = parenright.full;
lastChange = "2023-08-28 01:09:54 +0000";
layers = (
{
hints = (
{
horizontal = 1;
place = (-89, 938);
place = (-89, 938);
type = Stem;
},
{
place = (277, 74);
place = (277, 74);
type = Stem;
}
);
layerId = m01;
shapes = (
{
closed = 1;
nodes = (
(61,830,l),
(177,735,o),
(277,592,o),
(277,380,cs),
(277,168,o),
(177,25,o),
(61,-70,c),
(78,-89,l),
(216,-3,o),
(351,139,o),
(351,380,cs),
(351,621,o),
(216,763,o),
(78,849,c)
);
}
);
vertWidth = 1000;
width = 551;
}
);
note = cid59952;
unicode = 65289;
},
{
glyphname = tortoiseshellbracketleft.vert;
lastChange = "2023-08-28 01:11:11 +0000";
layers = (
{
hints = (
{
horizontal = 1;
place = (127, 38);
place = (127, 38);
type = Stem;
},
{
place = (31, 938);
place = (31, 938);
type = Stem;
}
);
layerId = m01;
shapes = (
{
closed = 1;
nodes = (
(140,680,l),
(31,447,l),
(64,430,l),
(164,642,l),
(836,642,l),
(936,430,l),
(969,447,l),
(860,680,l)
);
}
);
vertWidth = 485;
width = 1000;
}
);
note = cid59895;
unicode = 65081;
},
{
glyphname = tortoiseshellbracketright.vert;
lastChange = "2023-08-28 01:11:17 +0000";
layers = (
{
hints = (
{
horizontal = 1;
place = (595, 38);
place = (595, 38);
type = Stem;
},
{
place = (31, 938);
place = (31, 938);
type = Stem;
}
);
layerId = m01;
shapes = (
{
closed = 1;
nodes = (
(969,828,l),
(936,845,l),
(836,633,l),
(164,633,l),
(64,845,l),
(31,828,l),
(140,595,l),
(860,595,l)
);
}
);
vertWidth = 485;
width = 1000;
}
);
note = cid59896;
unicode = 65082;
},
{
glyphname = whitecornerbracketleft.vert;
lastChange = "2023-08-28 01:11:22 +0000";
layers = (
{
hints = (
{
horizontal = 1;
place = (-85, 28);
place = (-85, 28);
type = Stem;
},
{
horizontal = 1;
place = (115, 28);
place = (115, 28);
type = Stem;
},
{
horizontal = 1;
place = (233, 28);
place = (233, 28);
type = Stem;
},
{
place = (311, 28);
place = (311, 28);
type = Stem;
},
{
place = (815, 28);
place = (815, 28);
type = Stem;
},
{
place = (937, 28);
place = (937, 28);
type = Stem;
}
);
layerId = m01;
shapes = (
{
closed = 1;
nodes = (
(815,334,l),
(965,334,l),
(965,680,l),
(311,680,l),
(311,534,l),
(815,534,l)
);
},
{
closed = 1;
nodes = (
(937,362,l),
(843,362,l),
(843,562,l),
(339,562,l),
(339,652,l),
(937,652,l)
);
}
);
vertWidth = 581;
width = 1000;
}
);
note = cid59905;
unicode = 65091;
},
{
glyphname = whitecornerbracketright.vert;
lastChange = "2023-08-28 01:11:28 +0000";
layers = (
{
hints = (
{
horizontal = 1;
place = (499, 28);
place = (499, 28);
type = Stem;
},
{
horizontal = 1;
place = (617, 28);
place = (617, 28);
type = Stem;
},
{
horizontal = 1;
place = (817, 28);
place = (817, 28);
type = Stem;
},
{
place = (35, 28);
place = (35, 28);
type = Stem;
},
{
place = (157, 28);
place = (157, 28);
type = Stem;
},
{
place = (661, 28);
place = (661, 28);
type = Stem;
}
);
layerId = m01;
shapes = (
{
closed = 1;
nodes = (
(185,845,l),
(35,845,l),
(35,499,l),
(689,499,l),
(689,645,l),
(185,645,l)
);
},
{
closed = 1;
nodes = (
(63,817,l),
(157,817,l),
(157,617,l),
(661,617,l),
(661,527,l),
(63,527,l)
);
}
);
vertWidth = 581;
width = 1000;
}
);
note = cid59906;
unicode = 65092;
},
{
glyphname = whitelenticularbracketleft.vert;
lastChange = "2023-08-28 01:11:34 +0000";
layers = (
{
hints = (
{
horizontal = 1;
place = (176, 28);
place = (176, 28);
type = Stem;
},
{
horizontal = 1;
place = (237, 28);
place = (237, 28);
type = Stem;
},
{
place = (35, 28);
place = (35, 28);
type = Stem;
},
{
place = (937, 28);
place = (937, 28);
type = Stem;
}
);
layerId = m01;
shapes = (
{
closed = 1;
nodes = (
(56,330,l),
(122,482,o),
(278,591,o),
(500,591,cs),
(722,591,o),
(878,482,o),
(944,330,c),
(965,330,l),
(965,680,l),
(35,680,l),
(35,330,l)
);
},
{
closed = 1;
nodes = (
(63,652,l),
(937,652,l),
(937,401,l),
(884,488,o),
(752,619,o),
(500,619,cs),
(248,619,o),
(116,488,o),
(63,401,c)
);
}
);
vertWidth = 585;
width = 1000;
}
);
note = cid59883;
unicode = 65047;
},
{
glyphname = whitelenticularbracketright.vert;
lastChange = "2023-08-28 01:11:40 +0000";
layers = (
{
hints = (
{
horizontal = 1;
place = (502, 28);
place = (502, 28);
type = Stem;
},
{
horizontal = 1;
place = (564, 28);
place = (564, 28);
type = Stem;
},
{
place = (35, 28);
place = (35, 28);
type = Stem;
},
{
place = (937, 28);
place = (937, 28);
type = Stem;
}
);
layerId = m01;
shapes = (
{
closed = 1;
nodes = (
(35,502,l),
(965,502,l),
(965,853,l),
(944,853,l),
(878,700,o),
(722,592,o),
(500,592,cs),
(278,592,o),
(122,700,o),
(56,853,c),
(35,853,l)
);
},
{
closed = 1;
nodes = (
(752,564,o),
(884,694,o),
(937,781,c),
(937,530,l),
(63,530,l),
(63,781,l),
(116,694,o),
(248,564,o),
(500,564,cs)
);
}
);
vertWidth = 578;
width = 1000;
}
);
note = cid59884;
unicode = 65048;
},
{
glyphname = braceleft.full.vert;
lastChange = "2023-08-28 01:11:46 +0000";
layers = (
{
hints = (
{
horizontal = 1;
place = (63, 81);
place = (63, 81);
type = Stem;
},
{
place = (10, 46);
place = (10, 46);
type = Stem;
},
{
place = (944, 46);
place = (944, 46);
type = Stem;
},
{
horizontal = 1;
place = (53, 64);
place = (53, 64);
type = Stem;
}
);
layerId = m01;
shapes = (
{
closed = 1;
nodes = (
(479,680,l),
(461,561,o),
(430,527,o),
(379,527,cs),
(318,527,o),
(238,554,o),
(153,554,cs),
(60,554,o),
(10,481,o),
(10,338,cs),
(10,289,l),
(54,289,l),
(58,339,ls),
(64,439,o),
(96,473,o),
(162,473,cs),
(236,473,o),
(302,463,o),
(364,463,cs),
(425,463,o),
(479,498,o),
(500,586,c),
(521,498,o),
(574,463,o),
(636,463,cs),
(698,463,o),
(763,473,o),
(838,473,cs),
(904,473,o),
(938,439,o),
(943,339,cs),
(945,289,l),
(990,289,l),
(990,338,ls),
(990,481,o),
(941,554,o),
(847,554,cs),
(762,554,o),
(682,527,o),
(622,527,cs),
(570,527,o),
(539,561,o),
(521,680,c)
);
}
);
vertWidth = 590;
width = 1000;
}
);
note = cid59893;
unicode = 65079;
},
{
glyphname = braceright.full.vert;
lastChange = "2023-08-28 01:11:52 +0000";
layers = (
{
hints = (
{
horizontal = 1;
place = (613, 82);
place = (613, 82);
type = Stem;
},
{
place = (10, 46);
place = (10, 46);
type = Stem;
},
{
place = (944, 46);
place = (944, 46);
type = Stem;
},
{
horizontal = 1;
place = (641, 63);
place = (641, 63);
type = Stem;
}
);
layerId = m01;
shapes = (
{
closed = 1;
nodes = (
(945,879,l),
(943,829,ls),
(938,729,o),
(904,695,o),
(838,695,cs),
(763,695,o),
(698,704,o),
(636,704,cs),
(574,704,o),
(521,669,o),
(500,581,c),
(479,669,o),
(425,704,o),
(364,704,cs),
(302,704,o),
(236,695,o),
(162,695,cs),
(96,695,o),
(64,729,o),
(58,829,cs),
(54,879,l),
(10,879,l),
(10,829,ls),
(10,687,o),
(60,613,o),
(153,613,cs),
(238,613,o),
(318,641,o),
(379,641,cs),
(430,641,o),
(461,607,o),
(479,488,c),
(521,488,l),
(539,607,o),
(570,641,o),
(622,641,cs),
(682,641,o),
(762,613,o),
(848,613,cs),
(941,613,o),
(990,687,o),
(990,829,cs),
(990,879,l)
);
}
);
vertWidth = 592;
width = 1000;
}
);
note = cid59894;
unicode = 65080;
},
{
glyphname = bracketleft.full.vert;
lastChange = "2023-08-28 01:11:59 +0000";
layers = (
{
hints = (
{
horizontal = 1;
place = (128, 37);
place = (128, 37);
type = Stem;
},
{
place = (35, 38);
place = (35, 38);
type = Stem;
},
{
place = (927, 38);
place = (927, 38);
type = Stem;
}
);
layerId = m01;
shapes = (
{
closed = 1;
nodes = (
(35,680,l),
(35,430,l),
(73,430,l),
(73,643,l),
(927,643,l),
(927,430,l),
(965,430,l),
(965,680,l)
);
}
);
vertWidth = 485;
width = 1000;
}
);
note = cid59909;
unicode = 65095;
},
{
glyphname = bracketright.full.vert;
lastChange = "2023-08-28 01:12:05 +0000";
layers = (
{
hints = (
{
horizontal = 1;
place = (595, 37);
place = (595, 37);
type = Stem;
},
{
place = (35, 38);
place = (35, 38);
type = Stem;
},
{
place = (927, 38);
place = (927, 38);
type = Stem;
}
);
layerId = m01;
shapes = (
{
closed = 1;
nodes = (
(965,595,l),
(965,845,l),
(927,845,l),
(927,632,l),
(73,632,l),
(73,845,l),
(35,845,l),
(35,595,l)
);
}
);
vertWidth = 485;
width = 1000;
}
);
note = cid59910;
unicode = 65096;
},
{
glyphname = parenleft.full.vert;
lastChange = "2023-08-28 01:12:11 +0000";
layers = (
{
hints = (
{
horizontal = 1;
place = (158, 74);
place = (158, 74);
type = Stem;
},
{
place = (31, 938);
place = (31, 938);
type = Stem;
}
);
layerId = m01;
shapes = (
{
closed = 1;
nodes = (
(259,680,o),
(117,545,o),
(31,407,c),
(50,390,l),
(145,506,o),
(288,606,o),
(500,606,cs),
(712,606,o),
(855,506,o),
(950,390,c),
(969,407,l),
(883,545,o),
(741,680,o),
(500,680,cs)
);
}
);
vertWidth = 552;
width = 1000;
}
);
note = cid59891;
unicode = 65077;
},
